<svg width="32" height="32" viewBox="0 0 32 32" fill="none" xmlns="http://www.w3.org/2000/svg">
  <circle cx="16" cy="16" r="16" fill="#0066cc"/>
  <path d="M16 6L6 11V20C6 23.866 10.477 27 16 27C21.523 27 26 23.866 26 20V11L16 6Z" fill="white"/>
  <path d="M13 14C13 13.4477 13.4477 13 14 13C14.5523 13 15 13.4477 15 14C15 14.5523 14.5523 15 14 15C13.4477 15 13 14.5523 13 14Z" fill="#0066cc"/>
  <path d="M17 14C17 13.4477 17.4477 13 18 13C18.5523 13 19 13.4477 19 14C19 14.5523 18.5523 15 18 15C17.4477 15 17 14.5523 17 14Z" fill="#0066cc"/>
  <path d="M13 18C13 18 14.5 19.5 16 19.5C17.5 19.5 19 18 19 18" stroke="#0066cc" stroke-width="1.5" stroke-linecap="round"/>
  <path d="M16 10V14M16 14L18 12M16 14L14 12" stroke="#0066cc" stroke-width="1.5" stroke-linecap="round" stroke-linejoin="round"/>
</svg>
